<svg width="800" height="800" viewBox="0 0 800 800" fill="none" xmlns="http://www.w3.org/2000/svg">
  <rect width="800" height="800" rx="96" fill="#E0E7FF"/>
  <circle cx="400" cy="350" r="210" fill="#4F46E5"/>
  <path d="M240 245L320 115L360 290L240 245Z" fill="#312E81"/>
  <path d="M560 245L480 115L440 290L560 245Z" fill="#312E81"/>
  <circle cx="330" cy="355" r="28" fill="#F8FAFC"/>
  <circle cx="470" cy="355" r="28" fill="#F8FAFC"/>
  <circle cx="330" cy="355" r="12" fill="#111827"/>
  <circle cx="470" cy="355" r="12" fill="#111827"/>
  <path d="M310 560L400 480L490 560L400 640L310 560Z" fill="#FACC15" opacity="0.95"/>
  <path d="M360 605H440" stroke="#FFFFFF" stroke-width="20" stroke-linecap="round"/>
  <circle cx="400" cy="420" r="18" fill="#111827"/>
  <path d="M360 465C382 490 418 490 440 465" stroke="#FFFFFF" stroke-width="14" stroke-linecap="round"/>
</svg>
