<svg width="800" height="800" viewBox="0 0 800 800" fill="none" xmlns="http://www.w3.org/2000/svg">
  <rect width="800" height="800" rx="96" fill="#FEF3C7"/>
  <circle cx="400" cy="380" r="210" fill="#D97706"/>
  <path d="M275 240L335 120L360 290L275 240Z" fill="#92400E"/>
  <path d="M525 240L465 120L440 290L525 240Z" fill="#92400E"/>
  <path d="M300 585L400 510L500 585L400 655L300 585Z" fill="#FACC15"/>
  <path d="M355 605H445" stroke="#FFFFFF" stroke-width="20" stroke-linecap="round"/>
  <ellipse cx="400" cy="445" rx="105" ry="72" fill="#FFF7ED"/>
  <circle cx="330" cy="365" r="28" fill="#FFFFFF"/>
  <circle cx="470" cy="365" r="28" fill="#FFFFFF"/>
  <circle cx="330" cy="365" r="12" fill="#111827"/>
  <circle cx="470" cy="365" r="12" fill="#111827"/>
  <circle cx="400" cy="420" r="18" fill="#111827"/>
  <path d="M355 480C385 508 415 508 445 480" stroke="#FFFFFF" stroke-width="16" stroke-linecap="round"/>
</svg>
